{"title":"Rio.2011.TS.XviD.Feel-Free","uid":6323729,"size":664736580,"categoryP":"video","categoryS":"movies","magnet":"?xt=urn:btih:f00966984f16b4edaa260acc4ac428b77767b03a&amp;dn=Rio.2011.TS.XviD.Feel-Free&amp;tr=udp%3A%2F%2Ftracker.openbittorrent.com%3A80&amp;tr=udp%3A%2F%2Fopen.demonii.com%3A1337&amp;tr=udp%3A%2F%2Ftracker.coppersurfer.tk%3A6969&amp;tr=udp%3A%2F%2Fexodus.desync.com%3A6969","seeders":0,"leechers":1,"uploader":"TvTeam","files":5,"time":1303039036,"description":". \n  &lt;a href=&quot;\nhttp://www.torrenting.com/&quot; rel=&quot;nofollow&quot; target=&quot;_NEW&quot;&gt;\nhttp://www.torrenting.com/&lt;/a&gt;        :     Greatest Movie Tracker on The Net!!!\n &lt;a href=&quot;\nhttp://www.Torrenting.com&quot; rel=&quot;nofollow&quot; target=&quot;_NEW&quot;&gt;\nhttp://www.Torrenting.com&lt;/a&gt;          :     Once &amp; For all ;)\n\n\n               www . Torrenting . Com \n\n(((((((((((((= Enjoy No RAR releases =))))))))))))))))))))\n\n\n...................................NFO:....................................\n\n.   Rio 2011 TS XviD Feel-Free\n\n\nFormat : AVI\nFormat/Info : Audio Video Interleave\nFile size : 634 MiB\nDuration : 1h 22mn\nOverall bit rate : 1 069 Kbps\n\n\nVideo\nID : 0\nFormat : MPEG-4 Visual\nFormat profile : Advanced Simple@L5\nFormat settings, BVOP : Yes\nFormat settings, QPel : No\nFormat settings, GMC : No warppoints\nFormat settings, Matrix : Default (H.263)\nMuxing mode : Packed bitstream\nCodec ID : XVID\nCodec ID/Hint : XviD\nDuration : 1h 22mn\nBit rate : 931 Kbps\nWidth : 688 pixels\nHeight : 288 pixels\nDisplay aspect ratio : 2.35:1\nFrame rate : 25.000 fps\nColor space : YUV\nChroma subsampling : 4:2:0\nBit depth : 8 bits\nScan type : Progressive\nBits/(Pixel*Frame) : 0.188\nStream size : 552 MiB (87%)\nWriting library : XviD 1.2.1 (UTC 2008-12-04)\n\nAudio\nID : 1\nFormat : MPEG Audio\nFormat version : Version 1\nFormat profile : Layer 3\nMode : Joint stereo\nMode extension : MS Stereo\nCodec ID : 55\nCodec ID/Hint : MP3\nDuration : 1h 22mn\nBit rate mode : Constant\nBit rate : 128 Kbps\nChannel(s) : 2 channels\nSampling rate : 44.1 KHz\nStream size : 75.9 MiB (12%)\nAlignment : Split accross interleaves\nInterleave, duration : 40 ms (1.00 video frame)\nInterleave, preload duration : 500 ms\nWriting library : LAME3.98r\n\neNJOY\n\n[color=blue][b]Screenshots[/b][/color]\n\n[imgw]http://bitpic.bitboxes.co.uk/images/12861097541208297846330.png[/imgw]\n\n[imgw]http://bitpic.bitboxes.co.uk/images/76997573268479264285367.png[/imgw]\n\n[color=Darkblue][b]eNJOY[/b][/color]","torrent":{"xt":"urn:btih:f00966984f16b4edaa260acc4ac428b77767b03a","amp;dn":"Rio.2011.TS.XviD.Feel-Free","amp;tr":["udp%3A%2F%2Ftracker.openbittorrent.com%3A80","udp%3A%2F%2Fopen.demonii.com%3A1337","udp%3A%2F%2Ftracker.coppersurfer.tk%3A6969","udp%3A%2F%2Fexodus.desync.com%3A6969"],"infoHash":"f00966984f16b4edaa260acc4ac428b77767b03a","infoHashBuffer":{"type":"Buffer","data":[240,9,102,152,79,22,180,237,170,38,10,204,74,196,40,183,119,103,176,58]},"announce":[],"urlList":[]}}